<svg aria-hidden="true" style="position:absolute;width:0;height:0" xmlns="http://www.w3.org/2000/svg" overflow="hidden"><defs><symbol id="icon-mail" viewBox="0 0 45 32"><path  d="M40.6 0H4.2C1.884 0 0 1.794 0 4v24c0 2.206 1.884 4 4.2 4h36.4c2.316 0 4.2-1.794 4.2-4V4c0-2.206-1.884-4-4.2-4zm0 2.667c.19 0 .371.038.537.103L22.4 18.236 3.663 2.77c.165-.066.346-.103.537-.103h36.4zm0 26.666H4.2c-.772 0-1.4-.598-1.4-1.333V5.587l18.683 15.421c.264.217.591.326.917.326s.654-.108.917-.326L42 5.587V28c0 .736-.628 1.333-1.4 1.333z"/></symbol><symbol id="icon-logo" viewBox="0 0 32 32"><path d="M31.906 18.235l-.271.047a5.962 5.962 0 00-.713-1.959l.238-.138a6.275 6.275 0 00-1.399-1.667l-.178.211a6.012 6.012 0 00-1.801-1.046l.095-.258a6.212 6.212 0 00-2.146-.38v.275h-.006a6 6 0 00-1.519.195l-2.293-5.236h2.441V6.404h-3.875l-.859 1.314.678 1.549-6.889 2.543-.624-1.677h.964V8.258h-3.612l-.809-.809-1.326 1.326 1.358 1.358h1.424l.945 2.541-1.677 1.64a6.258 6.258 0 00-1.639-.893l-.094.259a5.984 5.984 0 00-2.046-.359h-.006v-.275a6.26 6.26 0 00-2.146.38l.095.258a5.99 5.99 0 00-1.801 1.046l-.178-.211a6.325 6.325 0 00-1.399 1.667l.238.138a5.954 5.954 0 00-.713 1.959l-.271-.048a6.254 6.254 0 00.001 2.177l.271-.048c.124.702.37 1.362.715 1.958l-.238.138a6.29 6.29 0 001.4 1.666l.177-.211a6.002 6.002 0 001.802 1.044l-.094.259c.688.251 1.41.378 2.147.378h.011v-.275a5.952 5.952 0 002.053-.366l.095.258a6.268 6.268 0 001.883-1.095l-.178-.211a6.041 6.041 0 001.337-1.596l.238.138a6.236 6.236 0 00.672-1.702l2.456.195 1.719-.662-.256-.687 5.091-7.82.981 2.241a6.39 6.39 0 00-.68.497l.177.211a6.038 6.038 0 00-1.341 1.592l-.238-.138a6.217 6.217 0 00-.75 2.047l.271.048a6.057 6.057 0 00-.003 2.082l-.271.047c.126.723.376 1.413.744 2.05l.238-.138c.35.607.804 1.146 1.337 1.596l-.178.211a6.244 6.244 0 001.883 1.095l.095-.258c.64.235 1.332.364 2.053.366v.275h.011c.737 0 1.459-.127 2.147-.378l-.094-.259a5.99 5.99 0 001.802-1.044l.177.211a6.29 6.29 0 001.4-1.666l-.238-.138a5.937 5.937 0 00.715-1.958l.271.048a6.315 6.315 0 00.001-2.178zm-25.63 5.211c-2.275 0-4.125-1.851-4.125-4.125s1.851-4.125 4.125-4.125c.815 0 1.575.239 2.215.648L5.62 18.651l.581 1.605 4.004.319a4.132 4.132 0 01-3.93 2.872zm2.129-4.897l1.398-1.367c.278.457.469.972.552 1.522l-1.95-.155zm3.853.307a5.974 5.974 0 00-.074-.586l.271-.048a6.209 6.209 0 00-.75-2.047l-.238.138a6.237 6.237 0 00-.299-.465l1.28-1.251 1.638 4.404-1.827-.145zm3.234-1.45l-1.428-3.839 5.17-1.908-3.742 5.747zm10.233 6.04a4.123 4.123 0 01-2.469-7.428l1.987 4.537 1.718-.752-1.987-4.538a4.13 4.13 0 014.877 4.055 4.13 4.13 0 01-4.125 4.125z"/></symbol><symbol id="icon-smartphone" viewBox="0 0 32 32"><path d="M24 0H6C4.9 0 4 .9 4 2v28c0 1.1.9 2 2 2h18c1.1 0 2-.9 2-2V2c0-1.1-.9-2-2-2zm-9 30.556a1.556 1.556 0 110-3.113 1.556 1.556 0 010 3.113zM24 26H6V4h18v22z"/></symbol><symbol id="icon-instagram" viewBox="0 0 32 32"><path d="M16 2.881c4.275 0 4.781.019 6.462.094 1.563.069 2.406.331 2.969.55a4.952 4.952 0 011.837 1.194 5.015 5.015 0 011.2 1.838c.219.563.481 1.412.55 2.969.075 1.688.094 2.194.094 6.463s-.019 4.781-.094 6.463c-.069 1.563-.331 2.406-.55 2.969a4.94 4.94 0 01-1.194 1.837 5.02 5.02 0 01-1.837 1.2c-.563.219-1.413.481-2.969.55-1.688.075-2.194.094-6.463.094s-4.781-.019-6.463-.094c-1.563-.069-2.406-.331-2.969-.55a4.952 4.952 0 01-1.838-1.194 5.02 5.02 0 01-1.2-1.837c-.219-.563-.481-1.413-.55-2.969-.075-1.688-.094-2.194-.094-6.463s.019-4.781.094-6.463c.069-1.563.331-2.406.55-2.969a4.964 4.964 0 011.194-1.838 5.015 5.015 0 011.838-1.2c.563-.219 1.412-.481 2.969-.55 1.681-.075 2.188-.094 6.463-.094zM16 0c-4.344 0-4.887.019-6.594.094-1.7.075-2.869.35-3.881.744-1.056.412-1.95.956-2.837 1.85a7.833 7.833 0 00-1.85 2.831C.444 6.538.169 7.7.094 9.4.019 11.113 0 11.656 0 16s.019 4.887.094 6.594c.075 1.7.35 2.869.744 3.881.413 1.056.956 1.95 1.85 2.837a7.82 7.82 0 002.831 1.844c1.019.394 2.181.669 3.881.744 1.706.075 2.25.094 6.594.094s4.888-.019 6.594-.094c1.7-.075 2.869-.35 3.881-.744 1.05-.406 1.944-.956 2.831-1.844s1.438-1.781 1.844-2.831c.394-1.019.669-2.181.744-3.881.075-1.706.094-2.25.094-6.594s-.019-4.887-.094-6.594c-.075-1.7-.35-2.869-.744-3.881a7.506 7.506 0 00-1.831-2.844A7.82 7.82 0 0026.482.843C25.463.449 24.301.174 22.601.099c-1.712-.081-2.256-.1-6.6-.1z"/><path d="M16 7.781c-4.537 0-8.219 3.681-8.219 8.219s3.681 8.219 8.219 8.219 8.219-3.681 8.219-8.219A8.221 8.221 0 0016 7.781zm0 13.55a5.331 5.331 0 110-10.663 5.331 5.331 0 010 10.663zM26.462 7.456a1.919 1.919 0 11-3.838 0 1.919 1.919 0 013.838 0z"/></symbol><symbol id="icon-telegram" viewBox="0 0 32 32"><path d="M16 0C7.162 0 0 7.162 0 16s7.162 16 16 16 16-7.163 16-16S24.837 0 16 0zm7.863 10.969l-2.625 12.369c-.181.881-.712 1.087-1.45.681l-4-2.956-1.919 1.869c-.225.219-.4.4-.8.4-.519 0-.431-.194-.606-.688L11.1 18.169l-3.956-1.231c-.856-.262-.862-.85.194-1.269l15.412-5.95c.7-.319 1.381.169 1.113 1.25z"/></symbol></defs></svg>